<mxfile host="app.diagrams.net" modified="2023-05-17T18:34:55.088Z" agent="Mozilla/5.0 (Windows NT 10.0; Win64; x64) AppleWebKit/537.36 (KHTML, like Gecko) Chrome/113.0.0.0 Safari/537.36" etag="lOoVnyRcWwO0_22P71zC" version="21.3.2" type="github">
  <diagram name="Página-1" id="6-PplMMaVUPobBZW0QeX">
    <mxGraphModel dx="1434" dy="796" grid="1" gridSize="10" guides="1" tooltips="1" connect="1" arrows="1" fold="1" page="1" pageScale="1" pageWidth="827" pageHeight="1169" math="0" shadow="0">
      <root>
        <mxCell id="0" />
        <mxCell id="1" parent="0" />
        <mxCell id="8iISEX3J9LfXSxGd36D7-1" value="&lt;font style=&quot;font-size: 30px;&quot;&gt;Rede Fazendas&lt;/font&gt;" style="text;strokeColor=none;fillColor=none;html=1;fontSize=24;fontStyle=1;verticalAlign=middle;align=center;" vertex="1" parent="1">
          <mxGeometry x="364" y="30" width="100" height="40" as="geometry" />
        </mxCell>
        <mxCell id="8iISEX3J9LfXSxGd36D7-3" value="Fazenda Decisão" style="text;strokeColor=none;fillColor=none;html=1;fontSize=24;fontStyle=1;verticalAlign=middle;align=center;" vertex="1" parent="1">
          <mxGeometry x="364" y="130" width="100" height="40" as="geometry" />
        </mxCell>
        <mxCell id="8iISEX3J9LfXSxGd36D7-5" style="edgeStyle=orthogonalEdgeStyle;rounded=0;orthogonalLoop=1;jettySize=auto;html=1;" edge="1" parent="1" source="8iISEX3J9LfXSxGd36D7-4" target="8iISEX3J9LfXSxGd36D7-6">
          <mxGeometry relative="1" as="geometry">
            <mxPoint x="520" y="270" as="targetPoint" />
          </mxGeometry>
        </mxCell>
        <mxCell id="8iISEX3J9LfXSxGd36D7-7" style="edgeStyle=orthogonalEdgeStyle;rounded=0;orthogonalLoop=1;jettySize=auto;html=1;" edge="1" parent="1" source="8iISEX3J9LfXSxGd36D7-4" target="8iISEX3J9LfXSxGd36D7-8">
          <mxGeometry relative="1" as="geometry">
            <mxPoint x="110" y="270" as="targetPoint" />
          </mxGeometry>
        </mxCell>
        <mxCell id="8iISEX3J9LfXSxGd36D7-4" value="" style="fontColor=#0066CC;verticalAlign=top;verticalLabelPosition=bottom;labelPosition=center;align=center;html=1;outlineConnect=0;fillColor=#CCCCCC;strokeColor=#6881B3;gradientColor=none;gradientDirection=north;strokeWidth=2;shape=mxgraph.networks.radio_tower;" vertex="1" parent="1">
          <mxGeometry x="379" y="210" width="70" height="120" as="geometry" />
        </mxCell>
        <mxCell id="8iISEX3J9LfXSxGd36D7-6" value="" style="fontColor=#0066CC;verticalAlign=top;verticalLabelPosition=bottom;labelPosition=center;align=center;html=1;outlineConnect=0;fillColor=#CCCCCC;strokeColor=#6881B3;gradientColor=none;gradientDirection=north;strokeWidth=2;shape=mxgraph.networks.satellite_dish;" vertex="1" parent="1">
          <mxGeometry x="530" y="250" width="45" height="40" as="geometry" />
        </mxCell>
        <mxCell id="8iISEX3J9LfXSxGd36D7-12" style="edgeStyle=orthogonalEdgeStyle;rounded=0;orthogonalLoop=1;jettySize=auto;html=1;" edge="1" parent="1" source="8iISEX3J9LfXSxGd36D7-8" target="8iISEX3J9LfXSxGd36D7-13">
          <mxGeometry relative="1" as="geometry">
            <mxPoint x="70" y="450" as="targetPoint" />
          </mxGeometry>
        </mxCell>
        <mxCell id="8iISEX3J9LfXSxGd36D7-8" value="" style="fontColor=#0066CC;verticalAlign=top;verticalLabelPosition=bottom;labelPosition=center;align=center;html=1;outlineConnect=0;fillColor=#CCCCCC;strokeColor=#6881B3;gradientColor=none;gradientDirection=north;strokeWidth=2;shape=mxgraph.networks.router;" vertex="1" parent="1">
          <mxGeometry x="40" y="350" width="60" height="20" as="geometry" />
        </mxCell>
        <mxCell id="8iISEX3J9LfXSxGd36D7-10" style="edgeStyle=orthogonalEdgeStyle;rounded=0;orthogonalLoop=1;jettySize=auto;html=1;" edge="1" parent="1" source="8iISEX3J9LfXSxGd36D7-9" target="8iISEX3J9LfXSxGd36D7-11">
          <mxGeometry relative="1" as="geometry">
            <mxPoint x="702.5" y="340" as="targetPoint" />
          </mxGeometry>
        </mxCell>
        <mxCell id="8iISEX3J9LfXSxGd36D7-9" value="" style="fontColor=#0066CC;verticalAlign=top;verticalLabelPosition=bottom;labelPosition=center;align=center;html=1;outlineConnect=0;fillColor=#CCCCCC;strokeColor=#6881B3;gradientColor=none;gradientDirection=north;strokeWidth=2;shape=mxgraph.networks.satellite_dish;direction=east;" vertex="1" parent="1">
          <mxGeometry x="680" y="250" width="45" height="40" as="geometry" />
        </mxCell>
        <mxCell id="8iISEX3J9LfXSxGd36D7-11" value="" style="fontColor=#0066CC;verticalAlign=top;verticalLabelPosition=bottom;labelPosition=center;align=center;html=1;outlineConnect=0;fillColor=#CCCCCC;strokeColor=#6881B3;gradientColor=none;gradientDirection=north;strokeWidth=2;shape=mxgraph.networks.wireless_hub;" vertex="1" parent="1">
          <mxGeometry x="690" y="333.75" width="57.5" height="52.5" as="geometry" />
        </mxCell>
        <mxCell id="8iISEX3J9LfXSxGd36D7-48" style="edgeStyle=orthogonalEdgeStyle;rounded=0;orthogonalLoop=1;jettySize=auto;html=1;exitX=0;exitY=0.5;exitDx=0;exitDy=0;exitPerimeter=0;entryX=0;entryY=0.5;entryDx=0;entryDy=0;entryPerimeter=0;" edge="1" parent="1" source="8iISEX3J9LfXSxGd36D7-13" target="8iISEX3J9LfXSxGd36D7-39">
          <mxGeometry relative="1" as="geometry" />
        </mxCell>
        <mxCell id="8iISEX3J9LfXSxGd36D7-49" style="edgeStyle=orthogonalEdgeStyle;rounded=0;orthogonalLoop=1;jettySize=auto;html=1;entryX=0;entryY=0.5;entryDx=0;entryDy=0;entryPerimeter=0;" edge="1" parent="1" source="8iISEX3J9LfXSxGd36D7-13" target="8iISEX3J9LfXSxGd36D7-38">
          <mxGeometry relative="1" as="geometry" />
        </mxCell>
        <mxCell id="8iISEX3J9LfXSxGd36D7-50" style="edgeStyle=orthogonalEdgeStyle;rounded=0;orthogonalLoop=1;jettySize=auto;html=1;entryX=0.02;entryY=0.94;entryDx=0;entryDy=0;entryPerimeter=0;" edge="1" parent="1" source="8iISEX3J9LfXSxGd36D7-13" target="8iISEX3J9LfXSxGd36D7-42">
          <mxGeometry relative="1" as="geometry" />
        </mxCell>
        <mxCell id="8iISEX3J9LfXSxGd36D7-51" style="edgeStyle=orthogonalEdgeStyle;rounded=0;orthogonalLoop=1;jettySize=auto;html=1;entryX=0;entryY=0.5;entryDx=0;entryDy=0;entryPerimeter=0;" edge="1" parent="1" source="8iISEX3J9LfXSxGd36D7-13" target="8iISEX3J9LfXSxGd36D7-15">
          <mxGeometry relative="1" as="geometry" />
        </mxCell>
        <mxCell id="8iISEX3J9LfXSxGd36D7-52" style="edgeStyle=orthogonalEdgeStyle;rounded=0;orthogonalLoop=1;jettySize=auto;html=1;entryX=0;entryY=0.5;entryDx=0;entryDy=0;entryPerimeter=0;" edge="1" parent="1" source="8iISEX3J9LfXSxGd36D7-13" target="8iISEX3J9LfXSxGd36D7-16">
          <mxGeometry relative="1" as="geometry" />
        </mxCell>
        <mxCell id="8iISEX3J9LfXSxGd36D7-53" style="edgeStyle=orthogonalEdgeStyle;rounded=0;orthogonalLoop=1;jettySize=auto;html=1;entryX=0;entryY=0.5;entryDx=0;entryDy=0;entryPerimeter=0;" edge="1" parent="1" source="8iISEX3J9LfXSxGd36D7-13" target="8iISEX3J9LfXSxGd36D7-17">
          <mxGeometry relative="1" as="geometry" />
        </mxCell>
        <mxCell id="8iISEX3J9LfXSxGd36D7-13" value="" style="fontColor=#0066CC;verticalAlign=top;verticalLabelPosition=bottom;labelPosition=center;align=center;html=1;outlineConnect=0;fillColor=#CCCCCC;strokeColor=#6881B3;gradientColor=none;gradientDirection=north;strokeWidth=2;shape=mxgraph.networks.hub;" vertex="1" parent="1">
          <mxGeometry x="40" y="435" width="60" height="25" as="geometry" />
        </mxCell>
        <mxCell id="8iISEX3J9LfXSxGd36D7-15" value="" style="fontColor=#0066CC;verticalAlign=top;verticalLabelPosition=bottom;labelPosition=center;align=center;html=1;outlineConnect=0;fillColor=#CCCCCC;strokeColor=#6881B3;gradientColor=none;gradientDirection=north;strokeWidth=2;shape=mxgraph.networks.pc;" vertex="1" parent="1">
          <mxGeometry x="155" y="350" width="50" height="50" as="geometry" />
        </mxCell>
        <mxCell id="8iISEX3J9LfXSxGd36D7-16" value="" style="fontColor=#0066CC;verticalAlign=top;verticalLabelPosition=bottom;labelPosition=center;align=center;html=1;outlineConnect=0;fillColor=#CCCCCC;strokeColor=#6881B3;gradientColor=none;gradientDirection=north;strokeWidth=2;shape=mxgraph.networks.pc;" vertex="1" parent="1">
          <mxGeometry x="155" y="422.5" width="50" height="50" as="geometry" />
        </mxCell>
        <mxCell id="8iISEX3J9LfXSxGd36D7-17" value="" style="fontColor=#0066CC;verticalAlign=top;verticalLabelPosition=bottom;labelPosition=center;align=center;html=1;outlineConnect=0;fillColor=#CCCCCC;strokeColor=#6881B3;gradientColor=none;gradientDirection=north;strokeWidth=2;shape=mxgraph.networks.pc;" vertex="1" parent="1">
          <mxGeometry x="155" y="500" width="50" height="50" as="geometry" />
        </mxCell>
        <mxCell id="8iISEX3J9LfXSxGd36D7-18" value="" style="fontColor=#0066CC;verticalAlign=top;verticalLabelPosition=bottom;labelPosition=center;align=center;html=1;outlineConnect=0;fillColor=#CCCCCC;strokeColor=#6881B3;gradientColor=none;gradientDirection=north;strokeWidth=2;shape=mxgraph.networks.laptop;" vertex="1" parent="1">
          <mxGeometry x="150" y="573.13" width="60" height="40" as="geometry" />
        </mxCell>
        <mxCell id="8iISEX3J9LfXSxGd36D7-19" value="" style="fontColor=#0066CC;verticalAlign=top;verticalLabelPosition=bottom;labelPosition=center;align=center;html=1;outlineConnect=0;fillColor=#CCCCCC;strokeColor=#6881B3;gradientColor=none;gradientDirection=north;strokeWidth=2;shape=mxgraph.networks.laptop;" vertex="1" parent="1">
          <mxGeometry x="150" y="659.38" width="60" height="40" as="geometry" />
        </mxCell>
        <mxCell id="8iISEX3J9LfXSxGd36D7-38" value="" style="fontColor=#0066CC;verticalAlign=top;verticalLabelPosition=bottom;labelPosition=center;align=center;html=1;outlineConnect=0;fillColor=#CCCCCC;strokeColor=#6881B3;gradientColor=none;gradientDirection=north;strokeWidth=2;shape=mxgraph.networks.hub;" vertex="1" parent="1">
          <mxGeometry x="40" y="750" width="60" height="25" as="geometry" />
        </mxCell>
        <mxCell id="8iISEX3J9LfXSxGd36D7-39" value="" style="fontColor=#0066CC;verticalAlign=top;verticalLabelPosition=bottom;labelPosition=center;align=center;html=1;outlineConnect=0;fillColor=#CCCCCC;strokeColor=#6881B3;gradientColor=none;gradientDirection=north;strokeWidth=2;shape=mxgraph.networks.hub;" vertex="1" parent="1">
          <mxGeometry x="40" y="870" width="60" height="25" as="geometry" />
        </mxCell>
        <mxCell id="8iISEX3J9LfXSxGd36D7-43" style="edgeStyle=orthogonalEdgeStyle;rounded=0;orthogonalLoop=1;jettySize=auto;html=1;exitX=1;exitY=0.7;exitDx=0;exitDy=0;exitPerimeter=0;entryX=0.15;entryY=0.5;entryDx=0;entryDy=0;entryPerimeter=0;" edge="1" parent="1" source="8iISEX3J9LfXSxGd36D7-42" target="8iISEX3J9LfXSxGd36D7-18">
          <mxGeometry relative="1" as="geometry" />
        </mxCell>
        <mxCell id="8iISEX3J9LfXSxGd36D7-45" style="edgeStyle=orthogonalEdgeStyle;rounded=0;orthogonalLoop=1;jettySize=auto;html=1;exitX=1;exitY=0.7;exitDx=0;exitDy=0;exitPerimeter=0;entryX=0.15;entryY=0.5;entryDx=0;entryDy=0;entryPerimeter=0;" edge="1" parent="1" source="8iISEX3J9LfXSxGd36D7-42" target="8iISEX3J9LfXSxGd36D7-19">
          <mxGeometry relative="1" as="geometry" />
        </mxCell>
        <mxCell id="8iISEX3J9LfXSxGd36D7-42" value="" style="fontColor=#0066CC;verticalAlign=top;verticalLabelPosition=bottom;labelPosition=center;align=center;html=1;outlineConnect=0;fillColor=#CCCCCC;strokeColor=#6881B3;gradientColor=none;gradientDirection=north;strokeWidth=2;shape=mxgraph.networks.wireless_hub;" vertex="1" parent="1">
          <mxGeometry x="40" y="610" width="57.5" height="52.5" as="geometry" />
        </mxCell>
      </root>
    </mxGraphModel>
  </diagram>
</mxfile>
